<svg xmlns="http://www.w3.org/2000/svg" version="1.0" viewBox="0 0 64 64"><defs/><path d="M20.9 1.4C11.6 5 3.6 13.5 1 22.6c-1.8 6.2-.9 18 1.8 23.6 3 6 9 12 15 15 6.8 3.3 21.6 3.3 28.4 0 6.2-3.1 11.9-8.7 14.9-14.8 2-4.1 2.4-6.4 2.4-14.4s-.4-10.3-2.4-14.4C58 11.3 52.7 6 46.4 2.9 40.4 0 26.8-.8 20.9 1.4zM44 6c13.2 6.6 19.7 21 15.6 34.1-1 3-2.6 6.5-3.6 7.9-2.7 3.4-2.5.8.1-4.8 3-6.2 3-16.3 0-22.5-2.6-5.3-8.7-11.2-14-13.4C35.4 4.4 22 5.3 22 8.6c0 1.4.8 1.5 5.4 1 7.9-1 12.6 0 12.6 2.9 0 1.6-1 2.6-4 3.8-3.4 1.3-4 2-4 4.5 0 6.8 6 9.2 9 3.7 1.6-3 2.6-3.1 4-.5.6 1.2 2.1 2 3.6 2 4.3 0 6.4 1.7 6.4 5.4 0 5.2-2.9 12.1-6.7 16.1-3.9 4-4 7.5-.2 5.4 1.7-.9 2-.8 1.7.3-1.4 4.2-9.9.5-17.9-7.8-7.5-8-8.4-9.7-5.9-11.9 4.1-3.7.8-10.1-3.9-7.5-1.7.8-2 .6-2.3-1.3-.2-1.2-1-2.2-1.8-2.2-4.2 0 1.6 15.2 9.2 23.9 2.3 2.7 6.9 6.6 10.1 8.7l5.8 3.8-4.3 1.2c-12.3 3.3-26.2-3.3-32.6-15.6-3.8-7.1-3.8-17.8 0-25 3-5.6 8.8-11.8 8.8-9.3 0 .8-.9 2.3-2 3.3-2.6 2.4-2.6 4.9 0 4.2 1.5-.4 1.9 0 1.7 1.7-.3 2.7 2.4 2.8 3.8.1.6-1.2 1.8-1.9 2.8-1.7 2.3.5 2.2-2.1-.3-4.3-1.1-1-2-3.1-2-4.7 0-1.5.1-2.8.3-2.8.1 0 2-.7 4.2-1.5C28.9 2.4 38.3 3.1 44 6z"/><path d="M7.4 22.2c-2.2 4.2-2.2 15-.1 19.9 4.2 10 15.1 16.8 25.5 16 2.6-.2 1.2-3.1-1.5-3.2-1.6 0-4.4-.6-6.3-1.3-3.5-1.3-3.5-1.3-1.2-2.7 1.2-.7 2.2-1.8 2.2-2.3 0-1.9-7.6-12.5-9-12.4-3.8.1-4-.1-3.4-4.2.6-3.7.5-4-1.6-4-2 0-2.1-.3-1.5-3.9.8-5.1-.9-6.1-3.1-1.9z"/></svg>