<?xml version="1.0" standalone="no"?>
<!DOCTYPE svg PUBLIC "-//W3C//DTD SVG 20010904//EN"
 "http://www.w3.org/TR/2001/REC-SVG-20010904/DTD/svg10.dtd">
<svg version="1.0" xmlns="http://www.w3.org/2000/svg"
 width="64.000000pt" height="64.000000pt" viewBox="0 0 64.000000 64.000000"
 preserveAspectRatio="xMidYMid meet">
<metadata>
Created by potrace 1.16, written by Peter Selinger 2001-2019
</metadata>
<g transform="translate(0.000000,64.000000) scale(0.100000,-0.100000)"
fill="#000000" stroke="none">
<path d="M209 626 c-93 -36 -173 -121 -199 -212 -18 -62 -9 -180 18 -236 30
-60 90 -120 150 -150 68 -33 216 -33 284 0 62 31 119 87 149 148 20 41 24 64
24 144 0 80 -4 103 -24 144 -31 63 -84 116 -147 147 -60 29 -196 37 -255 15z
m231 -46 c132 -66 197 -210 156 -341 -10 -30 -26 -65 -36 -79 -27 -34 -25 -8
1 48 30 62 30 163 0 225 -26 53 -87 112 -140 134 -67 29 -201 20 -201 -13 0
-14 8 -15 54 -10 79 10 126 0 126 -29 0 -16 -10 -26 -40 -38 -34 -13 -40 -20
-40 -45 0 -68 60 -92 90 -37 16 30 26 31 40 5 6 -12 21 -20 36 -20 43 0 64
-17 64 -54 0 -52 -29 -121 -67 -161 -39 -40 -40 -75 -2 -54 17 9 20 8 17 -3
-14 -42 -99 -5 -179 78 -75 80 -84 97 -59 119 41 37 8 101 -39 75 -17 -8 -20
-6 -23 13 -2 12 -10 22 -18 22 -42 0 16 -152 92 -239 23 -27 69 -66 101 -87
l58 -38 -43 -12 c-123 -33 -262 33 -326 156 -38 71 -38 178 0 250 30 56 88
118 88 93 0 -8 -9 -23 -20 -33 -26 -24 -26 -49 0 -42 15 4 19 0 17 -17 -3 -27
24 -28 38 -1 6 12 18 19 28 17 23 -5 22 21 -3 43 -11 10 -20 31 -20 47 0 15 1
28 3 28 1 0 20 7 42 15 54 21 148 14 205 -15z"/>
<path d="M74 418 c-22 -42 -22 -150 -1 -199 42 -100 151 -168 255 -160 26 2
12 31 -15 32 -16 0 -44 6 -63 13 -35 13 -35 13 -12 27 12 7 22 18 22 23 0 19
-76 125 -90 124 -38 -1 -40 1 -34 42 6 37 5 40 -16 40 -20 0 -21 3 -15 39 8
51 -9 61 -31 19z"/>
</g>
</svg>
